<?xml version="1.0" encoding="utf-8"?>
<!-- Generator: Adobe Illustrator 16.0.0, SVG Export Plug-In . SVG Version: 6.00 Build 0)  -->
<!DOCTYPE svg PUBLIC "-//W3C//DTD SVG 1.1//EN" "http://www.w3.org/Graphics/SVG/1.1/DTD/svg11.dtd">
<svg version="1.1" id="Layer_1" xmlns="http://www.w3.org/2000/svg" xmlns:xlink="http://www.w3.org/1999/xlink" x="0px" y="0px"
	 width="167px" height="57px" viewBox="0 0 167 57" enable-background="new 0 0 167 57" xml:space="preserve">
<g>
	<g>
		<g>
			<path fill="#1A2041" d="M12.137,29.537l6.733,12.677h1.054v0.422h-8.917v-0.422h1.657L8.64,33.823l-1.315,1.631v6.76h1.657v0.422
				H0.274v-0.422h1.684V24.88H0.274v-0.419h8.286v0.419H7.324v9.707l6.023-7.392c0.473-0.603,0.71-1.077,0.71-1.474
				c0-0.684-0.658-0.842-2.314-0.842h-1.395v-0.419h7.733v0.419c-1.736,0-2.684,0.633-3.499,1.632L12.137,29.537z"/>
		</g>
		<g>
			<path fill="#1A2041" d="M35.225,38.163c1.42,0,2.499,1.08,2.499,2.499c0,1.368-1.079,2.474-2.499,2.474
				c-1.367,0-2.473-1.105-2.473-2.474C32.752,39.243,33.857,38.163,35.225,38.163z"/>
		</g>
		<g>
			<path fill="#1A2041" d="M57.867,26.17c0.316-0.893,0.712-1.999,2.684-1.999l6.287,18.043h1.104v0.422h-8.47v-0.422h1.71
				l-2.024-5.837h-4.341l-0.921,2.709c-0.133,0.393-0.342,1.129-0.342,1.525c0,1.341,1.025,1.603,2.367,1.603h0.921v0.422h-6.76
				v-0.422c2.183,0,2.525-1.104,3.234-3.154L57.867,26.17z M54.975,35.954h4.051L57,30.114L54.975,35.954z"/>
		</g>
		<g>
			<path fill="#1A2041" d="M83.112,38.163c1.421,0,2.499,1.08,2.499,2.499c0,1.368-1.078,2.474-2.499,2.474
				c-1.367,0-2.472-1.105-2.472-2.474C80.641,39.243,81.745,38.163,83.112,38.163z"/>
		</g>
		<g>
			<path fill="#1A2041" d="M111.12,33.877c1.446,0,2.921,0.262,4.025,1.21c0.946,0.842,1.157,2.025,1.157,4.918v0.422
				c0,1.184,0.289,1.419,0.577,1.419c0.421,0,0.816-1.103,0.974-2.551l0.475,0.052c-0.265,2.157-0.658,3.789-3.578,3.789
				c-1.604,0-2.63-0.525-3.313-1.447c-0.527-0.735-0.737-1.42-0.737-3.551c0-1.735-0.104-2.315-0.499-2.944
				c-0.212-0.371-0.579-0.632-1-0.765c-0.315-0.106-0.684-0.184-1.263-0.184h-1.262v7.969h1.657v0.422h-8.707v-0.422h1.683V24.88
				h-1.683v-0.419h8.995c4.578,0,7.682,0.945,7.682,4.812c0,2.922-2.262,4.131-5.183,4.499V33.877z M106.676,33.797h1.21
				c2.84,0,2.84-2.129,2.84-4.393c0-3.734-1.342-4.524-3.183-4.524h-0.867V33.797z"/>
		</g>
		<g>
			<path fill="#1A2041" d="M134.024,38.163c1.42,0,2.499,1.08,2.499,2.499c0,1.368-1.079,2.474-2.499,2.474
				c-1.368,0-2.473-1.105-2.473-2.474C131.552,39.243,132.656,38.163,134.024,38.163z"/>
		</g>
		<g>
			<path fill="#1A2041" d="M156.666,26.17c0.316-0.893,0.711-1.999,2.684-1.999l6.286,18.043h1.104v0.422h-8.47v-0.422h1.711
				l-2.025-5.837h-4.341l-0.921,2.709c-0.132,0.393-0.342,1.129-0.342,1.525c0,1.341,1.026,1.603,2.367,1.603h0.921v0.422h-6.76
				v-0.422c2.184,0,2.525-1.104,3.235-3.154L156.666,26.17z M153.773,35.954h4.051l-2.025-5.84L153.773,35.954z"/>
		</g>
	</g>
	<g>
		<g>
			<path fill="#1A2041" d="M79.763,11.425c0.851,0.325,1.606,0.265,2.363,0.063c1.374-0.371,2.655-0.974,3.875-1.701
				c0.278-0.151,0.525-0.339,0.803-0.494c0.094-0.06,0.201-0.074,0.433-0.138c-0.092,0.201-0.124,0.325-0.2,0.385
				c-0.247,0.219-0.51,0.435-0.788,0.618c-1.064,0.712-2.191,1.313-3.396,1.761c-0.618,0.232-1.281,0.356-1.991,0.54
				c0.015,0.17,0.03,0.402,0.061,0.635c0.108,0.756,0,1.497-0.231,2.206c-0.371,1.129-0.927,2.163-1.652,3.12
				c-0.725,0.974-1.683,1.468-2.934,1.327c-1.064-0.124-1.59-0.787-1.42-1.836c0.17-1.144,0.618-2.177,1.235-3.134
				c0.694-1.098,1.436-2.163,2.224-3.197c1.034-1.327,2.131-2.608,3.227-3.893c0.37-0.431,0.818-0.802,1.25-1.172
				c0.264-0.216,0.572-0.371,0.959-0.123c-0.371,0.617-0.881,1.097-1.299,1.637c-0.4,0.54-0.833,1.066-1.235,1.606
				C80.628,10.189,80.242,10.762,79.763,11.425z M79.408,12.043c-0.14,0.154-0.263,0.264-0.355,0.401
				c-0.309,0.432-0.603,0.865-0.88,1.313c-0.54,0.847-1.065,1.712-1.404,2.671c-0.186,0.509-0.341,1.049-0.448,1.574
				c-0.078,0.325-0.062,0.679,0.34,0.925c0.323-0.246,0.664-0.444,0.941-0.74c0.942-0.957,1.637-2.068,2.023-3.364
				c0.154-0.525,0.262-1.065,0.231-1.623C79.824,12.783,79.717,12.398,79.408,12.043z"/>
		</g>
		<g>
			<path fill="#1A2041" d="M88.875,11.503c0.308-0.155,0.4-0.371,0.524-0.54c0.263-0.386,0.51-0.787,0.803-1.127
				c0.339-0.419,0.772-0.401,1.22,0c-0.108,0.216-0.216,0.463-0.34,0.71c-0.463,0.879-0.926,1.79-1.188,2.749
				c-0.094,0.308-0.17,0.601-0.108,0.988c0.139-0.078,0.247-0.095,0.34-0.155c0.108-0.063,0.217-0.141,0.309-0.232
				c1.791-1.497,3.243-2.654,5.034-4.168c0.169-0.124,0.325-0.247,0.602-0.463c-0.046,0.229-0.046,0.339-0.093,0.385
				c-0.154,0.201-0.324,0.385-0.509,0.572c-0.525,0.508-0.727,0.632-1.251,1.157c-0.54,0.54-1.066,1.111-1.59,1.684
				c-0.526,0.555-1.098,1.098-1.729,1.542c-0.433,0.296-0.896,0.435-1.421,0.42c-0.711-0.049-1.111-0.402-1.143-1.129
				c-0.017-0.106,0-0.201,0-0.402c-0.2,0.201-0.293,0.324-0.417,0.434c-0.401,0.371-0.803,0.756-1.235,1.08
				c-0.664,0.479-1.437,0.664-2.27,0.494c-0.74-0.138-1.05-0.525-0.958-1.267c0.016-0.262,0.078-0.54,0.186-0.787
				c0.526-1.25,1.251-2.361,2.224-3.304c0.556-0.525,1.173-0.896,1.914-1.034c0.264-0.046,0.557-0.046,0.803,0
				c0.465,0.078,0.711,0.356,0.711,0.833c-0.016,0.311-0.108,0.618-0.169,0.911C89.074,11.055,88.982,11.241,88.875,11.503z
				 M85.17,14.668c0.152-0.063,0.276-0.123,0.416-0.187c1.528-0.864,2.471-2.191,2.965-3.875c0.046-0.216,0.062-0.448,0.046-0.664
				c-0.017-0.201-0.093-0.37-0.325-0.448c-0.37,0.095-0.725,0.279-1.002,0.572c-1.082,1.097-1.839,2.378-2.193,3.86
				C85.014,14.16,84.982,14.39,85.17,14.668z"/>
		</g>
		<g>
			<path fill="#1A2041" d="M100.841,9.356c-0.062,0.402-0.294,0.586-0.51,0.756c-0.586,0.494-1.174,0.988-1.775,1.468
				c-0.819,0.663-1.651,1.327-2.502,1.962c-0.37,0.293-0.54,0.601-0.509,1.095c0.092,1.545-0.217,3.011-0.834,4.415
				c-0.264,0.589-0.557,1.129-0.973,1.605c-0.432,0.48-0.927,0.836-1.576,0.96c-0.153,0.028-0.322,0.061-0.494,0.061
				c-0.756,0-1.142-0.386-1.203-1.144c-0.047-0.646,0.062-1.296,0.247-1.913c0.263-0.819,0.694-1.546,1.22-2.192
				c0.432-0.557,0.88-1.097,1.391-1.56c0.4-0.37,0.539-0.758,0.508-1.267c-0.046-0.572-0.03-1.158,0-1.729
				c0.031-1.189,0.48-2.191,1.345-3.011c0.216-0.215,0.494-0.385,0.755-0.525c0.217-0.124,0.465-0.17,0.742,0.018
				c-0.648,0.787-1.204,1.605-1.313,2.654c-0.061,0.648,0.017,1.281,0.124,1.976c0.447-0.169,0.772-0.447,1.127-0.678
				c0.355-0.232,0.711-0.479,1.066-0.727l1.018-0.695c0.356-0.262,0.695-0.525,1.052-0.772
				C100.084,9.883,100.347,9.512,100.841,9.356z M93.707,15.918c-0.756,0.681-1.313,1.514-1.714,2.441
				c-0.263,0.618-0.464,1.25-0.494,1.945c0,0.246-0.03,0.525,0.169,0.772c0.494-0.124,0.726-0.479,0.912-0.865
				C93.244,18.868,93.645,17.446,93.707,15.918z"/>
		</g>
		<g>
			<path fill="#1A2041" d="M98.402,14.915c0.139-0.092,0.277-0.169,0.4-0.278c0.711-0.555,1.391-1.126,2.1-1.652
				c0.418-0.307,0.896-0.571,1.359-0.818c0.187-0.106,0.402-0.184,0.604-0.216c0.539-0.077,0.91,0.201,0.91,0.756
				c-0.016,0.571-0.107,1.144-0.17,1.715l-0.109,0.911c0.233-0.17,0.387-0.247,0.511-0.371c1.405-1.39,2.811-2.777,4.2-4.168
				c0.354-0.356,0.694-0.727,1.049-1.08c0.17-0.173,0.341-0.356,0.695-0.296c-0.062,0.155-0.077,0.311-0.154,0.434
				c-0.355,0.463-0.694,0.911-1.064,1.373c-1.004,1.253-2.008,2.517-3.182,3.628c-0.371,0.342-0.756,0.667-1.174,0.96
				c-0.354,0.262-0.771,0.385-1.219,0.354c-0.603-0.046-0.896-0.325-0.865-0.925c0.031-0.558,0.14-1.098,0.231-1.638
				c0.048-0.308,0.14-0.604,0.231-1.003c-0.216,0.106-0.355,0.138-0.447,0.216c-0.494,0.431-0.988,0.851-1.466,1.281
				c-0.526,0.462-1.005,0.974-1.53,1.422c-0.309,0.262-0.663,0.494-1.034,0.632c-0.263,0.109-0.571,0.077-0.849,0.031
				c-0.416-0.063-0.588-0.278-0.571-0.695c0.031-0.401,0.092-0.818,0.2-1.203c0.34-1.267,0.879-2.456,1.513-3.582
				c1.189-2.1,2.503-4.108,4.03-5.979c0.433-0.54,0.942-1.017,1.467-1.465c0.293-0.247,0.664-0.434,1.02-0.525
				c0.771-0.201,1.25,0.247,1.111,1.02c-0.077,0.463-0.232,0.942-0.447,1.359c-1.235,2.347-2.81,4.415-4.863,6.112
				c-0.356,0.279-0.758,0.494-1.144,0.759c-0.138,0.106-0.339,0.215-0.4,0.37c-0.355,0.787-0.68,1.589-1.004,2.394
				C98.341,14.777,98.372,14.838,98.402,14.915z M105.289,3.318c-0.295,0.278-0.525,0.465-0.695,0.681
				c-0.355,0.417-0.727,0.833-1.02,1.296c-1.05,1.669-2.084,3.335-3.118,5.019c-0.031,0.063-0.048,0.141-0.094,0.31
				c0.155-0.108,0.218-0.141,0.263-0.2c1.453-1.437,2.795-2.965,3.938-4.663c0.232-0.355,0.448-0.741,0.633-1.129
				C105.365,4.261,105.443,3.858,105.289,3.318z"/>
		</g>
		<g>
			<path fill="#1A2041" d="M108.732,13.864c0.479-0.247,0.816-0.509,1.142-0.802c1.452-1.281,1.761-1.221,3.212-2.517
				c0.278-0.247,0.539-0.479,0.818-0.71c0.107-0.095,0.23-0.123,0.479-0.247c-0.076,0.247-0.092,0.386-0.17,0.478
				c-0.247,0.324-0.54,0.617-0.803,0.91c-0.757,0.851-0.14,0.201-0.91,1.034c-0.572,0.618-1.359,1.376-1.977,1.948
				c-0.325,0.293-0.741,0.522-1.144,0.74c-0.417,0.23-0.879,0.216-1.327,0.152c-0.588-0.092-0.896-0.431-0.881-1.048
				c0.016-0.371,0.078-0.756,0.154-1.126c0.232-1.083,0.727-2.04,1.328-2.95c0.14-0.188,0.309-0.371,0.51-0.494
				c0.17-0.138,0.401-0.17,0.602-0.015c0.218,0.138,0.108,0.339,0.047,0.522c-0.2,0.558-0.447,1.112-0.618,1.684
				c-0.185,0.664-0.323,1.358-0.494,2.04C108.685,13.542,108.716,13.648,108.732,13.864z M111.604,5.313l-0.417,0.571
				c-0.278,0.385-0.556,0.755-0.849,1.141c-0.031,0.063-0.062,0.141-0.123,0.169c-0.108,0.063-0.264,0.173-0.371,0.124
				c-0.078-0.029-0.139-0.216-0.171-0.339c-0.015-0.078,0.032-0.185,0.077-0.262c0.247-0.417,0.48-0.833,0.758-1.204
				C110.754,5.203,111.079,5.094,111.604,5.313z"/>
		</g>
		<g>
			<path fill="#1A2041" d="M116.546,11.117c0.276-0.108,0.493-0.169,0.711-0.264c1.203-0.523,1.111-0.247,2.16-1.034
				c0.155-0.124,0.37-0.201,0.558-0.293c0.23,0.215,0.215,0.434,0.045,0.603c-0.217,0.247-0.463,0.478-0.74,0.664
				c-1.235,0.848-1.252,0.772-2.733,1.203c-0.03,0.294-0.046,0.604-0.124,0.911c-0.201,0.896-0.588,1.729-1.111,2.487
				c-0.448,0.646-1.082,0.926-1.869,0.816c-0.803-0.092-1.389-0.586-1.496-1.405c-0.048-0.399-0.048-0.818,0.046-1.203
				c0.138-0.664,0.324-1.313,0.571-1.931c0.385-0.971,1.019-1.743,1.93-2.27c0.34-0.184,0.694-0.324,1.096-0.324
				c0.587,0.018,0.896,0.247,0.974,0.833c0.03,0.265-0.032,0.525-0.032,0.79C116.516,10.824,116.546,10.931,116.546,11.117z
				 M113.798,15.3c0.153-0.184,0.323-0.324,0.431-0.494c0.324-0.586,0.634-1.188,0.912-1.789c0.231-0.512,0.387-1.034,0.076-1.561
				c0.588-0.571,0.665-0.928,0.325-1.62c-0.355,0.23-0.603,0.555-0.819,0.88c-0.693,1.048-1.034,2.223-1.234,3.427
				C113.428,14.53,113.52,14.9,113.798,15.3z"/>
		</g>
		<g>
			<path fill="#1A2041" d="M119.803,11.703c0.231-0.169,0.449-0.339,0.695-0.494c0.726-0.479,1.436-0.956,2.177-1.422
				c0.34-0.198,0.741-0.321,1.158-0.339c0.833,0,1.251,0.435,1.174,1.268c-0.031,0.416-0.109,0.818-0.155,1.221
				c-0.015,0.106,0,0.229,0,0.354c0.293,0.141,0.48-0.061,0.664-0.17c1.545-0.879,3.073-1.79,4.617-2.686
				c0.186-0.109,0.371-0.233,0.557-0.311c0.123-0.046,0.293-0.046,0.416-0.015c0.186,0.032,0.263,0.262,0.155,0.385
				c-0.109,0.155-0.247,0.293-0.402,0.402c-1.08,0.772-2.146,1.546-3.243,2.287c-0.54,0.354-1.126,0.663-1.697,0.939
				c-0.541,0.247-1.112,0.342-1.698,0.218c-0.634-0.123-0.864-0.402-0.804-1.051c0.031-0.432,0.139-0.848,0.217-1.281l0.107-0.957
				c-0.262,0.124-0.433,0.17-0.586,0.262c-1.329,0.91-2.641,1.853-3.783,2.996c-0.107,0.092-0.201,0.201-0.309,0.293
				c-0.277,0.247-0.618,0.278-0.959,0.201c-0.385-0.078-0.523-0.311-0.37-0.681c0.37-0.816,0.757-1.62,1.159-2.407
				c0.231-0.448,0.51-0.865,0.787-1.299c0.078-0.138,0.201-0.262,0.34-0.354c0.232-0.141,0.525,0.046,0.479,0.308
				c-0.062,0.311-0.154,0.617-0.263,0.896c-0.169,0.448-0.354,0.896-0.54,1.327C119.726,11.641,119.773,11.672,119.803,11.703z"/>
		</g>
		<g>
			<path fill="#1A2041" d="M138.58,15.099c0.416,0,0.604-0.198,0.787-0.385c0.864-0.896,1.328-1.977,1.576-3.18
				c0.061-0.265-0.063-0.463-0.186-0.681c-0.155-0.276-0.046-0.431,0.246-0.523c0.279-0.095,0.541-0.049,0.758,0.106
				c0.57,0.388,1.157,0.388,1.791,0.265c1.266-0.232,2.484-0.572,3.689-0.974c0.325-0.109,0.603-0.293,0.911-0.435
				c0.107-0.06,0.2-0.138,0.324-0.169c0.078-0.015,0.217-0.015,0.247,0.046c0.046,0.077,0.078,0.232,0.046,0.311
				c-0.062,0.123-0.169,0.247-0.277,0.324c-0.185,0.106-0.37,0.216-0.571,0.308c-1.544,0.604-3.12,1.111-4.771,1.358
				c-0.4,0.063-0.803,0.046-1.235,0.078l-0.138,0.85c-0.171,0.879-0.542,1.684-1.065,2.407c-0.433,0.604-1.004,1.034-1.762,1.158
				c-0.4,0.063-0.771,0.017-1.126-0.106c-0.447-0.155-0.727-0.512-0.741-0.974c-0.016-0.431,0-0.879,0.093-1.296
				c0.37-1.729,1.033-3.353,1.96-4.849c1.823-2.934,4.153-5.403,6.965-7.426c0.446-0.325,0.94-0.589,1.419-0.836
				c0.371-0.184,0.789-0.247,1.205-0.184c0.54,0.092,0.787,0.431,0.711,0.971c-0.031,0.218-0.093,0.419-0.171,0.635
				c-0.062,0.201-0.153,0.402-0.263,0.586c-1.636,2.933-3.875,5.312-6.84,6.949c-0.571,0.307-1.142,0.6-1.807,0.663
				c-0.216,0.015-0.355,0.124-0.463,0.293c-0.757,1.175-1.219,2.456-1.374,3.829C138.488,14.499,138.55,14.792,138.58,15.099z
				 M148.293,1.066c-0.093,0.014-0.17,0.014-0.216,0.046c-0.232,0.138-0.448,0.293-0.649,0.462
				c-2.563,2.037-4.726,4.447-6.455,7.211c-0.076,0.109-0.107,0.232-0.153,0.356c0.663-0.279,1.251-0.618,1.791-0.988
				c1.853-1.253,3.475-2.749,4.71-4.616c0.354-0.543,0.633-1.129,0.91-1.716C148.354,1.589,148.432,1.327,148.293,1.066z"/>
		</g>
		<g>
			<path fill="#1A2041" d="M150.672,11.488c-0.324,0.247-0.617,0.522-0.957,0.755c-0.494,0.34-1.003,0.664-1.529,0.957
				c-0.432,0.232-0.91,0.278-1.404,0.219c-0.54-0.078-0.834-0.42-0.74-0.96c0.185-0.988,1.28-2.841,2.021-3.551
				c0.293-0.278,0.664-0.355,1.08-0.06c-0.416,0.864-1.574,2.668-1.743,3.628c0.277,0.092,0.448-0.078,0.632-0.17
				c1.004-0.571,1.916-1.284,2.78-2.039l1.358-1.189c0.293-0.262,0.618-0.385,1.003-0.216c0.201,0.092,0.309,0.247,0.263,0.463
				c-0.062,0.247-0.139,0.511-0.246,0.741c-0.231,0.54-0.495,1.051-0.727,1.574c-0.062,0.155-0.108,0.31-0.2,0.543
				c0.432-0.109,0.649-0.371,0.91-0.558c0.278-0.184,0.54-0.402,0.803-0.604c0.278-0.198,0.556-0.385,0.819-0.586l0.818-0.601
				c0.263-0.187,0.54-0.388,0.911-0.479c-0.063,0.109-0.124,0.232-0.202,0.308c-0.523,0.419-1.049,0.836-1.573,1.267
				c-0.896,0.695-1.776,1.405-2.672,2.086c-0.309,0.247-0.54,0.54-0.711,0.896c-0.895,1.914-1.883,3.781-3.118,5.527
				c-0.4,0.555-0.835,1.111-1.297,1.62c-0.634,0.681-1.391,1.204-2.332,1.359c-0.294,0.046-0.617,0.017-0.911-0.047
				c-0.371-0.077-0.555-0.355-0.57-0.727c-0.032-0.477,0.076-0.925,0.323-1.31c0.418-0.649,0.85-1.299,1.328-1.885
				c0.911-1.065,1.946-2.008,3.104-2.81c0.911-0.635,1.606-1.39,2.039-2.424c0.247-0.572,0.57-1.112,0.849-1.652
				C150.748,11.534,150.702,11.503,150.672,11.488z M144.325,21.801c0.247-0.123,0.418-0.184,0.571-0.278
				c0.511-0.354,0.896-0.816,1.189-1.327c0.71-1.204,1.405-2.425,2.1-3.629l0.124-0.324c-0.14,0.078-0.201,0.109-0.247,0.155
				c-0.927,0.851-1.807,1.729-2.563,2.731c-0.37,0.494-0.681,1.034-0.988,1.577C144.341,20.999,144.233,21.324,144.325,21.801z"/>
		</g>
	</g>
	<g>
		<rect x="0.26" y="55.79" fill="#1A2041" width="166.443" height="0.939"/>
	</g>
	<g>
		<rect x="0.26" y="10.46" fill="#1A2041" width="68.652" height="0.939"/>
	</g>
</g>
</svg>
